<svg width="58" height="58" viewBox="0 0 58 58" fill="none" xmlns="http://www.w3.org/2000/svg">
<g clip-path="url(#clip0)">
<path d="M40.3069 43.6673L43.666 47.0264L47.0251 43.6673L43.666 40.3082L40.3069 43.6673Z" fill="black"/>
<path d="M36.9476 40.3079L40.3066 43.667L43.6657 40.3079L40.3066 36.9489L36.9476 40.3079Z" fill="black"/>
<path d="M33.5901 36.9495L36.9492 40.3086L40.3083 36.9495L36.9492 33.5905L33.5901 36.9495Z" fill="black"/>
<path d="M30.2308 33.5901L33.5898 36.9492L36.9489 33.5901L33.5898 30.2311L30.2308 33.5901Z" fill="black"/>
<path d="M26.8714 30.2313L30.2305 33.5903L33.5895 30.2313L30.2305 26.8722L26.8714 30.2313Z" fill="black"/>
<path d="M23.514 26.8724L26.873 30.2314L30.2321 26.8724L26.873 23.5133L23.514 26.8724Z" fill="black"/>
<path d="M20.1546 23.5135L23.5137 26.8726L26.8727 23.5135L23.5137 20.1544L20.1546 23.5135Z" fill="black"/>
<path d="M16.7952 20.1541L20.1543 23.5132L23.5134 20.1541L20.1543 16.795L16.7952 20.1541Z" fill="black"/>
<path d="M20.1546 16.7952L23.5137 20.1543L26.8727 16.7952L23.5137 13.4362L20.1546 16.7952Z" fill="black"/>
<path d="M13.4359 23.5135L16.7949 26.8726L20.154 23.5135L16.7949 20.1544L13.4359 23.5135Z" fill="black"/>
<path d="M13.4359 16.7957L16.7949 20.1548L20.154 16.7957L16.7949 13.4366L13.4359 16.7957Z" fill="black"/>
<path d="M10.0765 13.4368L13.4355 16.7959L16.7946 13.4368L13.4355 10.0778L10.0765 13.4368Z" fill="black"/>
<path d="M10.0765 26.8719L13.4355 30.231L16.7946 26.8719L13.4355 23.5128L10.0765 26.8719Z" fill="black"/>
<path d="M10.0765 33.5901L13.4355 36.9492L16.7946 33.5901L13.4355 30.2311L10.0765 33.5901Z" fill="black"/>
<path d="M13.4359 36.9495L16.7949 40.3086L20.154 36.9495L16.7949 33.5905L13.4359 36.9495Z" fill="black"/>
<path d="M23.512 13.4368L26.8711 16.7959L30.2302 13.4368L26.8711 10.0778L23.512 13.4368Z" fill="black"/>
<path d="M13.4359 30.2313L16.7949 33.5903L20.154 30.2313L16.7949 26.8722L13.4359 30.2313Z" fill="black"/>
<path d="M26.8714 16.7957L30.2305 20.1548L33.5895 16.7957L30.2305 13.4366L26.8714 16.7957Z" fill="black"/>
<path d="M30.2308 13.4368L33.5898 16.7959L36.9489 13.4368L33.5898 10.0778L30.2308 13.4368Z" fill="black"/>
<path d="M33.5901 16.7957L36.9492 20.1548L40.3083 16.7957L36.9492 13.4366L33.5901 16.7957Z" fill="black"/>
<path d="M10.0765 20.1546L13.4355 23.5137L16.7946 20.1546L13.4355 16.7955L10.0765 20.1546Z" fill="black"/>
<path d="M16.7952 13.4368L20.1543 16.7959L23.5134 13.4368L20.1543 10.0778L16.7952 13.4368Z" fill="black"/>
</g>
<defs>
<clipPath id="clip0">
<rect x="33.5898" y="57.1025" width="47.5029" height="33.2521" transform="rotate(-135 33.5898 57.1025)" fill="white"/>
</clipPath>
</defs>
</svg>
