<svg width="143" height="143" viewBox="0 0 143 143" fill="none" xmlns="http://www.w3.org/2000/svg">
<path d="M40.8584 20.4292H20.4292V40.8584H40.8584V20.4292Z" fill="#11EDD3"/>
<path d="M61.2851 0H40.856V20.4292H61.2851V0Z" fill="#11EDD3"/>
<path d="M81.7143 20.4292L61.2851 20.4292L61.2851 40.8584H81.7143V20.4292Z" fill="#11EDD3"/>
<path d="M102.144 0H81.7148L81.7143 20.4292L102.144 20.4292V0Z" fill="#11EDD3"/>
<path d="M122.571 20.4292H102.142V40.8584H122.571V20.4292Z" fill="#11EDD3"/>
<path d="M40.8584 61.2851H20.4292V81.7143H40.8584V61.2851Z" fill="#11EDD3"/>
<path d="M81.7143 61.2851H61.2851V81.7143H81.7143V61.2851Z" fill="#11EDD3"/>
<path d="M122.571 61.2851H102.142V81.7143H122.571V61.2851Z" fill="#11EDD3"/>
<path d="M40.8584 102.142H20.4292V122.571H40.8584V102.142Z" fill="#11EDD3"/>
<path d="M81.7143 102.142H61.2851V122.571H81.7143V102.142Z" fill="#11EDD3"/>
<path d="M122.571 102.142H102.142V122.571H122.571V102.142Z" fill="#11EDD3"/>
<path d="M143 0H122.571L122.571 20.4292L143 20.4292V0Z" fill="#11EDD3"/>
<path d="M20.4292 40.856H0V61.2851L20.4292 61.2851L20.4292 40.856Z" fill="#11EDD3"/>
<path d="M61.2851 40.856H40.856V61.2851L61.2851 61.2851L61.2851 40.856Z" fill="#11EDD3"/>
<path d="M102.144 40.856H81.7148L81.7143 61.2851L102.144 61.2851V40.856Z" fill="#11EDD3"/>
<path d="M143 40.856H122.571L122.571 61.2851L143 61.2851V40.856Z" fill="#11EDD3"/>
<path d="M20.4292 81.7143L0 81.7148V102.144H20.4292L20.4292 81.7143Z" fill="#11EDD3"/>
<path d="M61.2851 81.7143L40.856 81.7148V102.144H61.2851L61.2851 81.7143Z" fill="#11EDD3"/>
<path d="M102.144 81.7148L81.7143 81.7143L81.7148 102.144H102.144V81.7148Z" fill="#11EDD3"/>
<path d="M143 81.7148L122.571 81.7143L122.571 102.144H143V81.7148Z" fill="#11EDD3"/>
<path d="M20.4292 122.571L0 122.571V143H20.4292L20.4292 122.571Z" fill="#11EDD3"/>
<path d="M61.2851 122.571L40.856 122.571V143H61.2851L61.2851 122.571Z" fill="#11EDD3"/>
<path d="M102.144 122.571L81.7143 122.571L81.7148 143H102.144V122.571Z" fill="#11EDD3"/>
</svg>
