<svg width="577" height="574" viewBox="0 0 577 574" fill="none" xmlns="http://www.w3.org/2000/svg">
<path d="M205.154 112.999H166.614V151.539H205.154V112.999Z" fill="#11EDD3"/>
<path d="M282.229 112.999H243.689V151.539H282.229V112.999Z" fill="#11EDD3"/>
<path d="M205.154 421.306H166.614V459.846H205.154V421.306Z" fill="#11EDD3"/>
<path d="M320.768 421.306H282.228V459.846H320.768V421.306Z" fill="#11EDD3"/>
<path d="M397.847 112.999H359.307V151.539H397.847V112.999Z" fill="#11EDD3"/>
<path d="M397.847 421.306H359.307V459.846H397.847V421.306Z" fill="#11EDD3"/>
<path d="M89.54 267.153H51.0003V305.692H89.54V267.153Z" fill="#11EDD3"/>
<path d="M243.693 228.613H205.154V267.153H243.693V228.613Z" fill="#11EDD3"/>
<path d="M359.311 228.613H320.772V267.153H359.311V228.613Z" fill="#11EDD3"/>
<path d="M397.847 305.688H359.307V344.228H397.847V305.688Z" fill="#11EDD3"/>
<path d="M205.154 305.688H166.614V344.228H205.154V305.688Z" fill="#11EDD3"/>
<path d="M128.08 190.075H89.5399V228.615H128.08V190.075Z" fill="#11EDD3"/>
<path d="M128.08 344.228H89.5399V382.767H128.08V344.228Z" fill="#11EDD3"/>
<path d="M166.614 151.539L128.075 151.539V190.078H166.615L166.614 151.539Z" fill="#11EDD3"/>
<path d="M166.615 382.771H128.075V421.31H166.615V382.771Z" fill="#11EDD3"/>
<path d="M89.5405 228.613H51.0008L51.0003 267.153H89.54L89.5405 228.613Z" fill="#11EDD3"/>
<path d="M89.5399 305.688H51.0003V344.227L89.5399 344.228L89.5399 305.688Z" fill="#11EDD3"/>
<path d="M436.381 382.767H474.921V344.227H436.381V382.767Z" fill="#11EDD3"/>
<path d="M436.381 228.614H474.921V190.074H436.381V228.614Z" fill="#11EDD3"/>
<path d="M397.847 421.306H436.386V382.766H397.846L397.847 421.306Z" fill="#11EDD3"/>
<path d="M397.846 190.074H436.386V151.534H397.846V190.074Z" fill="#11EDD3"/>
<path d="M474.921 344.232H513.461V305.693H474.921V344.232Z" fill="#11EDD3"/>
<path d="M474.921 267.154H513.461V228.614L474.921 228.614L474.921 267.154Z" fill="#11EDD3"/>
<path d="M359.311 344.227H320.772V382.767H359.311V344.227Z" fill="#11EDD3"/>
<path d="M320.768 344.227H282.228V382.767H320.768V344.227Z" fill="#11EDD3"/>
<path d="M243.693 344.227L205.154 344.228L205.154 382.767H243.693V344.227Z" fill="#11EDD3"/>
<path d="M513.461 267.153H474.921L474.921 305.693H513.461L513.461 267.153Z" fill="#11EDD3"/>
<path d="M38.5397 1.68462e-06H0V38.5397H38.5397V1.68462e-06Z" fill="#11EDD3"/>
<path d="M38.5397 38H0V76.5397H38.5397V38Z" fill="#11EDD3"/>
<path d="M76.5397 1.68462e-06H38V38.5397H76.5397V1.68462e-06Z" fill="#11EDD3"/>
<path d="M538 573.54H576.54V535H538V573.54Z" fill="#11EDD3"/>
<path d="M538 535.54H576.54V497H538V535.54Z" fill="#11EDD3"/>
<path d="M500 573.54H538.54V535H500V573.54Z" fill="#11EDD3"/>
<path d="M576.54 38.5397V1.68462e-06L538 0V38.5397H576.54Z" fill="#11EDD3"/>
<path d="M538.54 38.5397V1.68462e-06L500 0V38.5397H538.54Z" fill="#11EDD3"/>
<path d="M576.54 76.5397V38H538V76.5397H576.54Z" fill="#11EDD3"/>
<path d="M5.05387e-06 535L0 573.54H38.5397L38.5397 535H5.05387e-06Z" fill="#11EDD3"/>
<path d="M38 535L38 573.54H76.5397L76.5397 535H38Z" fill="#11EDD3"/>
<path d="M5.05387e-06 497L0 535.54H38.5397L38.5397 497L5.05387e-06 497Z" fill="#11EDD3"/>
</svg>
