<svg width="80" height="47" viewBox="0 0 80 47" fill="none" xmlns="http://www.w3.org/2000/svg">
<path d="M25.156 4.27958H20.9633V8.5629H25.156V4.27958Z" fill="#11EDD3"/>
<path d="M29.3484 4.2834H25.1557V8.56672H29.3484V4.2834Z" fill="#11EDD3"/>
<path d="M12.5781 8.53873H8.3854V12.8221H12.5781V8.53873Z" fill="#11EDD3"/>
<path d="M16.7708 8.53873H12.5781V12.8221H16.7708V8.53873Z" fill="#11EDD3"/>
<path d="M8.3854 12.8221L4.19264 12.8219V17.1053H8.38535L8.3854 12.8221Z" fill="#11EDD3"/>
<path d="M4.19271 17.0545H0V21.3378H4.19271V17.0545Z" fill="#11EDD3"/>
<path d="M4.19271 21.3378H0V25.6211H4.19271V21.3378Z" fill="#11EDD3"/>
<path d="M8.38535 21.3378L4.19271 21.3378V25.6211H8.38535V21.3378Z" fill="#11EDD3"/>
<path d="M12.5781 21.3378H8.38535V25.6211H12.5781V21.3378Z" fill="#11EDD3"/>
<path d="M16.7708 21.3378H12.5781V25.6211H16.7708V21.3378Z" fill="#11EDD3"/>
<path d="M20.9634 21.3378H16.7708V25.6211H20.9634V21.3378Z" fill="#11EDD3"/>
<path d="M25.156 21.3378H20.9634V25.6211H25.156V21.3378Z" fill="#11EDD3"/>
<path d="M29.3484 21.3378H25.156V25.6211H29.3484V21.3378Z" fill="#11EDD3"/>
<path d="M33.5414 21.3378H29.3484V25.6211H33.5414V21.3378Z" fill="#11EDD3"/>
<path d="M37.7341 21.3378H33.5414V25.6211H37.7341V21.3378Z" fill="#11EDD3"/>
<path d="M33.5414 7.20366e-05H29.3487L29.3484 4.2834L33.5414 4.28339V7.20366e-05Z" fill="#11EDD3"/>
<path d="M33.5414 4.27958H29.3487V8.5629H33.5414V4.27958Z" fill="#11EDD3"/>
<path d="M41.9267 4.27958H37.734V8.5629H41.9267V4.27958Z" fill="#11EDD3"/>
<path d="M33.5414 8.53676H29.3487V12.8201H33.5414V8.53676Z" fill="#11EDD3"/>
<path d="M41.9267 8.56661H37.734V12.8499H41.9267V8.56661Z" fill="#11EDD3"/>
<path d="M29.3487 7.20366e-05H25.1557V4.2834H29.3484L29.3487 7.20366e-05Z" fill="#11EDD3"/>
<path d="M37.7341 7.20366e-05H33.5414V4.28339H37.7341V7.20366e-05Z" fill="#11EDD3"/>
<path d="M41.9267 7.20366e-05H37.7341V4.28339H41.9267V7.20366e-05Z" fill="#11EDD3"/>
<path d="M20.9633 4.27958H16.7707V8.5629H20.9633V4.27958Z" fill="#11EDD3"/>
<path d="M20.9634 8.53676H16.7707V12.8201H20.9634V8.53676Z" fill="#11EDD3"/>
<path d="M37.7341 25.6211L41.9265 25.621V21.3377L37.7341 21.3378V25.6211Z" fill="#11EDD3"/>
<path d="M37.7337 21.334H41.9265V17.0507H37.7337V21.334Z" fill="#11EDD3"/>
<path d="M37.7337 17.0507H41.9265V12.7674H37.7337V17.0507Z" fill="#11EDD3"/>
<path d="M50.2587 21.334H54.4514V17.0507H50.2587V21.334Z" fill="#11EDD3"/>
<path d="M37.7337 42.7167H41.9265V38.4334H37.7337V42.7167Z" fill="#11EDD3"/>
<path d="M37.7337 38.4334H41.9265V34.1501H37.7337V38.4334Z" fill="#11EDD3"/>
<path d="M37.7337 34.1501H41.9265V29.8669H37.7337V34.1501Z" fill="#11EDD3"/>
<path d="M37.7337 29.8573H41.9265V25.574H37.7337V29.8573Z" fill="#11EDD3"/>
<path d="M37.7337 47H41.9265V42.7167H37.7337V47Z" fill="#11EDD3"/>
<path d="M25.156 38.4334H20.9633V42.7167H25.156V38.4334Z" fill="#11EDD3"/>
<path d="M29.3484 38.4334H25.156V42.7167H29.3484V38.4334Z" fill="#11EDD3"/>
<path d="M12.5781 34.1502H8.3854V38.4335H12.5781V34.1502Z" fill="#11EDD3"/>
<path d="M16.7708 34.1502H12.5781V38.4335H16.7708V34.1502Z" fill="#11EDD3"/>
<path d="M8.38535 29.8669H4.19264V34.1502L8.3854 34.1502L8.38535 29.8669Z" fill="#11EDD3"/>
<path d="M4.19271 25.5742H0V29.8575H4.19271V25.5742Z" fill="#11EDD3"/>
<path d="M33.5414 42.7167L29.3484 42.7167L29.3487 47H33.5414V42.7167Z" fill="#11EDD3"/>
<path d="M33.5414 38.4334H29.3484V42.7167L33.5414 42.7167V38.4334Z" fill="#11EDD3"/>
<path d="M33.5414 34.1502H29.3487L29.3484 38.4334H33.5414V34.1502Z" fill="#11EDD3"/>
<path d="M29.3484 42.7167H25.156L25.1557 47H29.3487L29.3484 42.7167Z" fill="#11EDD3"/>
<path d="M37.7337 42.7167L33.5414 42.7167V47L37.7337 47V42.7167Z" fill="#11EDD3"/>
<path d="M20.9633 38.4334L16.7708 38.4335L16.7707 42.7167H20.9633V38.4334Z" fill="#11EDD3"/>
<path d="M20.9634 34.1502H16.7708V38.4335L20.9633 38.4334L20.9634 34.1502Z" fill="#11EDD3"/>
<path d="M54.4515 8.56271H58.6442V4.27939H54.4515V8.56271Z" fill="#11EDD3"/>
<path d="M50.2845 8.56655H54.4772V4.28323H50.2845V8.56655Z" fill="#11EDD3"/>
<path d="M67.0185 12.822L71.2112 12.822V8.53868H67.0185V12.822Z" fill="#11EDD3"/>
<path d="M62.8261 12.822H67.0185V8.53868H62.8261V12.822Z" fill="#11EDD3"/>
<path d="M71.2113 17.1053L75.404 17.1053V12.822L71.2112 12.822L71.2113 17.1053Z" fill="#11EDD3"/>
<path d="M75.404 21.3378H79.5967V17.0545H75.404V21.3378Z" fill="#11EDD3"/>
<path d="M75.404 25.621H79.5967V21.3378H75.404V25.621Z" fill="#11EDD3"/>
<path d="M71.2113 25.621H75.404V21.3378L71.2113 21.3377V25.621Z" fill="#11EDD3"/>
<path d="M67.0185 25.621H71.2113V21.3377H67.0185V25.621Z" fill="#11EDD3"/>
<path d="M62.8261 25.621H67.0185V21.3377H62.8261V25.621Z" fill="#11EDD3"/>
<path d="M58.6334 25.621H62.8261V21.3377H58.6334V25.621Z" fill="#11EDD3"/>
<path d="M54.4515 25.621H58.6442V21.3377H54.4515V25.621Z" fill="#11EDD3"/>
<path d="M50.2587 25.621H54.4515V21.3377H50.2587V25.621Z" fill="#11EDD3"/>
<path d="M46.1193 25.621H50.312V21.3377H46.1193V25.621Z" fill="#11EDD3"/>
<path d="M41.9265 25.621H46.1193V21.3377H41.9265V25.621Z" fill="#11EDD3"/>
<path d="M46.1193 4.28332H50.312V1.9231e-10L46.1193 0V4.28332Z" fill="#11EDD3"/>
<path d="M46.1193 8.56271H50.312V4.27939H46.1193V8.56271Z" fill="#11EDD3"/>
<path d="M46.1193 12.8201L50.312 12.8201V8.53681H46.1193V12.8201Z" fill="#11EDD3"/>
<path d="M50.2587 17.0771H54.4514V12.7938H50.2587V17.0771Z" fill="#11EDD3"/>
<path d="M25.1559 21.334H29.3487V17.0507H25.1559V21.334Z" fill="#11EDD3"/>
<path d="M25.1559 17.0771H29.3487V12.7938H25.1559V17.0771Z" fill="#11EDD3"/>
<path d="M50.2587 34.1502H54.4514V29.8669H50.2587V34.1502Z" fill="#11EDD3"/>
<path d="M50.2587 29.8573H54.4514V25.574H50.2587V29.8573Z" fill="#11EDD3"/>
<path d="M62.8314 21.334H67.0241V17.0507H62.8314V21.334Z" fill="#11EDD3"/>
<path d="M62.8314 17.0771H67.0241V12.7938H62.8314V17.0771Z" fill="#11EDD3"/>
<path d="M62.8314 34.1502H67.0241V29.8669H62.8314V34.1502Z" fill="#11EDD3"/>
<path d="M62.8314 29.8573H67.0241V25.574H62.8314V29.8573Z" fill="#11EDD3"/>
<path d="M12.5778 21.334H16.7705V17.0507H12.5778V21.334Z" fill="#11EDD3"/>
<path d="M12.5778 17.0771H16.7705V12.7938H12.5778V17.0771Z" fill="#11EDD3"/>
<path d="M12.5781 34.1502H16.7708L16.7705 29.8669H12.5778L12.5781 34.1502Z" fill="#11EDD3"/>
<path d="M12.5778 29.8573H16.7705V25.574H12.5778V29.8573Z" fill="#11EDD3"/>
<path d="M25.1559 34.1502L29.3487 34.1502L29.3487 29.8669H25.1559V34.1502Z" fill="#11EDD3"/>
<path d="M25.1559 29.8573H29.3487V25.574H25.1559V29.8573Z" fill="#11EDD3"/>
<path d="M50.2845 4.28323H54.4772V1.9231e-10L50.2845 0V4.28323Z" fill="#11EDD3"/>
<path d="M41.9267 4.28339L46.1193 4.28332V0L41.9267 7.20366e-05V4.28339Z" fill="#11EDD3"/>
<path d="M58.6334 8.56271H62.8261V4.27939H58.6334V8.56271Z" fill="#11EDD3"/>
<path d="M58.6334 12.8201L62.8261 12.8201V8.53681H58.6334V12.8201Z" fill="#11EDD3"/>
<path d="M54.4515 42.7167H58.6442V38.4334H54.4515V42.7167Z" fill="#11EDD3"/>
<path d="M50.2845 42.7167H54.4772V38.4334H50.2845V42.7167Z" fill="#11EDD3"/>
<path d="M67.0185 38.4334H71.2112V34.1501H67.0185V38.4334Z" fill="#11EDD3"/>
<path d="M62.8261 38.4334H67.0185V34.1501H62.8261V38.4334Z" fill="#11EDD3"/>
<path d="M71.2112 34.1501L75.404 34.1502V29.8669H71.2113L71.2112 34.1501Z" fill="#11EDD3"/>
<path d="M75.404 29.8573H79.5967V25.574H75.404V29.8573Z" fill="#11EDD3"/>
<path d="M46.1193 47H50.312V42.7166H46.1193V47Z" fill="#11EDD3"/>
<path d="M46.1193 42.7166H50.312V38.4334H46.1193V42.7166Z" fill="#11EDD3"/>
<path d="M46.1193 38.4334H50.312V34.1501H46.1193V38.4334Z" fill="#11EDD3"/>
<path d="M50.2845 47H54.4772V42.7167H50.2845V47Z" fill="#11EDD3"/>
<path d="M41.9265 47H46.1193V42.7166L41.9265 42.7167V47Z" fill="#11EDD3"/>
<path d="M58.6334 42.7167H62.8261L62.8261 38.4334L58.6334 38.4334V42.7167Z" fill="#11EDD3"/>
<path d="M58.6334 38.4334L62.8261 38.4334V34.1501H58.6334V38.4334Z" fill="#11EDD3"/>
</svg>
