<svg width="35" height="29" viewBox="0 0 35 29" fill="none" xmlns="http://www.w3.org/2000/svg">
<path d="M9.7479 0H14.6218V4.83333H9.7479V0Z" fill="black"/>
<path d="M4.87395 0H9.7479V4.83333H4.87395V0Z" fill="black"/>
<path d="M0 4.83333H4.87395V9.66667H0V4.83333Z" fill="black"/>
<path d="M0 9.66667H4.87395V14.5H0V9.66667Z" fill="black"/>
<path d="M4.94164 14.4329H9.81559V19.2662H4.94164V14.4329Z" fill="black"/>
<path d="M9.81559 19.2662H14.6895V24.0995H9.81559V19.2662Z" fill="black"/>
<path d="M19.4281 0H24.3021V4.83333H19.4281V0Z" fill="black"/>
<path d="M24.3021 0H29.176V4.83333H24.3021V0Z" fill="black"/>
<path d="M29.2437 4.83333H34.1176V9.66667H29.2437V4.83333Z" fill="black"/>
<path d="M29.2437 9.66667H34.1176V14.5H29.2437V9.66667Z" fill="black"/>
<path d="M24.3697 14.3657H29.2437V19.1991H24.3697V14.3657Z" fill="black"/>
<path d="M19.4958 19.1991H24.3697V24.0324H19.4958V19.1991Z" fill="black"/>
<path d="M14.6218 4.7662H19.4958V9.59954H14.6218V4.7662Z" fill="black"/>
<path d="M14.6218 24.1667H19.4958V29H14.6218V24.1667Z" fill="black"/>
</svg>
