<svg xmlns="http://www.w3.org/2000/svg" xmlns:xlink="http://www.w3.org/1999/xlink"><symbol viewBox="0 0 13 10" id="arrow" xmlns="http://www.w3.org/2000/svg"><path d="M7.074 7.014C3.518 7.114 1.213 7.776.159 9c-.284.33-.126-.537 0-1 .89-3.273 3.195-4.945 6.915-5.017V0L13 5l-5.926 5V7.014z" fill-rule="evenodd"/></symbol><symbol viewBox="0 0 25 18" id="arrow_dir_left" xmlns="http://www.w3.org/2000/svg"><path d="M8.3.465a.87.87 0 011.25 0 .896.896 0 010 1.248L3.212 8.11h20.913c.488 0 .875.392.875.884a.885.885 0 01-.875.895H3.212l6.338 6.385a.912.912 0 010 1.261.87.87 0 01-1.25 0L.462 9.625a.874.874 0 010-1.249L8.3.465z" fill-rule="nonzero"/></symbol><symbol viewBox="0 0 25 18" id="arrow_dir_right" xmlns="http://www.w3.org/2000/svg"><path d="M16.7.465a.87.87 0 00-1.25 0 .896.896 0 000 1.248l6.338 6.397H.875A.875.875 0 000 8.994c0 .492.387.895.875.895h20.913l-6.338 6.385a.912.912 0 000 1.261.87.87 0 001.25 0l7.838-7.91a.874.874 0 000-1.249L16.7.465z" fill="#FFF" fill-rule="nonzero"/></symbol><symbol viewBox="0 0 16 6" id="arrow_left" xmlns="http://www.w3.org/2000/svg"><path d="M16 3.333H5.333V2H16v1.333zM0 2.667L5.333 0v5.333L0 2.667z"/></symbol><symbol viewBox="0 0 14 12" id="arrow_ref" xmlns="http://www.w3.org/2000/svg"><path d="M1.546 6.323h6.4V3.186l5.998 3.98-5.997 3.98V7.822H1.546v.138h-1.5v-.138H0v-1.5h.046V0h1.5v6.323z" fill="#E10098" fill-rule="evenodd"/></symbol><symbol viewBox="0 0 16 6" id="arrow_right" xmlns="http://www.w3.org/2000/svg"><path d="M0 2h10.667v1.333H0V2zm16 .667l-5.333 2.666V0L16 2.667z"/></symbol><symbol viewBox="0 0 9 11" id="art" xmlns="http://www.w3.org/2000/svg"><g fill-rule="evenodd"><path d="M0 9h9v2H0zM0 0h9v8H0z"/></g></symbol><symbol viewBox="0 0 34 27" id="audio" xmlns="http://www.w3.org/2000/svg"><g fill-rule="nonzero"><path d="M16.096 1.227a1.72 1.72 0 00-1.751.025.526.526 0 00-.074.053L6.593 7.783H.567A.565.565 0 000 8.35v10.738a.562.562 0 00.567.565l6.012-.003 7.674 7.031a.553.553 0 00.092.068c.278.168.587.252.896.252.293 0 .585-.076.855-.227.566-.319.904-.901.904-1.558V2.785c0-.656-.338-1.238-.904-1.558zm-.23 23.988a.648.648 0 01-.327.574.596.596 0 01-.567.015l-7.605-6.969V16.26a.565.565 0 00-.567-.565.565.565 0 00-.567.565v2.259l-5.1.002V8.913h5.1v2.26c0 .313.254.566.567.566a.565.565 0 00.567-.565V8.61l7.596-6.409a.593.593 0 01.576.01c.205.116.328.33.328.574v22.43zM29 13.5c0-4.738-2.923-8.945-7.273-10.47a.547.547 0 00-.698.355.573.573 0 00.344.72C25.277 5.475 27.9 9.25 27.9 13.5c0 4.247-2.618 8.023-6.514 9.395a.572.572 0 00-.343.72.552.552 0 00.52.385c.06 0 .12-.01.178-.03C26.083 22.44 29 18.232 29 13.5z"/><path d="M25.194.045a.567.567 0 00-.744.302.571.571 0 00.301.747 13.369 13.369 0 018.116 12.325c0 5.568-3.339 10.468-8.505 12.48a.57.57 0 00.41 1.063C30.378 24.777 34 19.46 34 13.419 34 7.577 30.543 2.327 25.194.045zM24 13.5c0-3.445-2.181-6.52-5.305-7.478a.541.541 0 00-.674.395c-.083.306.083.626.373.714 2.66.815 4.518 3.434 4.518 6.369 0 2.935-1.858 5.554-4.518 6.369-.29.088-.456.408-.373.714a.55.55 0 00.523.417c.05 0 .101-.007.151-.022C21.82 20.019 24 16.945 24 13.5z"/></g></symbol><symbol viewBox="0 0 20 20" id="bookmark_minus" xmlns="http://www.w3.org/2000/svg"><path d="M10 0C4.5 0 0 4.5 0 10s4.5 10 10 10 10-4.5 10-10S15.5 0 10 0zm5 11H5V9h10v2z" fill="#FFF" fill-rule="nonzero"/></symbol><symbol viewBox="0 0 22 22" id="bookmark_plus" xmlns="http://www.w3.org/2000/svg"><g fill="none" fill-rule="evenodd"><path d="M11 1C5.5 1 1 5.5 1 11s4.5 10 10 10 10-4.5 10-10S16.5 1 11 1z" stroke="#FFF" stroke-width="2"/><path fill="#FFF" d="M16 12h-4v4h-2v-4H6v-2h4V6h2v4h4z"/></g></symbol><symbol viewBox="0 0 20 20" id="chevron_left" xmlns="http://www.w3.org/2000/svg"><path d="M12.141 13.418c.268.271.268.709 0 .978s-.701.272-.969 0l-3.83-3.908a.697.697 0 010-.979l3.83-3.908c.267-.27.701-.27.969 0s.268.709 0 .978L9 10l3.141 3.418z"/></symbol><symbol viewBox="0 0 20 20" id="chevron_right" xmlns="http://www.w3.org/2000/svg"><path d="M11 10L7.859 6.58a.695.695 0 010-.978.68.68 0 01.969 0l3.83 3.908a.697.697 0 010 .979l-3.83 3.908c-.267.272-.701.27-.969 0s-.268-.707 0-.978L11 10z"/></symbol><symbol viewBox="0 0 16 16" id="circle_plus" xmlns="http://www.w3.org/2000/svg"><path d="M8 0C3.6 0 0 3.6 0 8s3.6 8 8 8 8-3.6 8-8-3.6-8-8-8zm4 8.8H8.8V12H7.2V8.8H4V7.2h3.2V4h1.6v3.2H12v1.6z" fill="#000" fill-rule="nonzero"/></symbol><symbol viewBox="0 0 38 38" id="cirlce_profile" xmlns="http://www.w3.org/2000/svg"><path d="M38 19C38 8.524 29.476 0 19 0S0 8.524 0 19c0 5.533 2.38 10.521 6.167 13.996l-.018.016.616.52c.04.034.084.061.124.095.328.271.667.529 1.012.778.112.081.224.162.338.24a19.35 19.35 0 002.688 1.548l.098.044a18.829 18.829 0 004.595 1.455l.127.023c.5.086 1.006.155 1.518.201.062.006.124.01.187.015.51.042 1.026.069 1.548.069.517 0 1.028-.027 1.535-.068l.193-.014c.508-.047 1.01-.114 1.505-.199l.129-.023a18.828 18.828 0 004.53-1.42c.053-.024.106-.047.158-.072a19.096 19.096 0 001.555-.821 19.01 19.01 0 001.092-.691c.128-.087.253-.179.38-.27.303-.219.6-.444.89-.68.064-.051.134-.096.196-.15l.633-.527-.019-.016C35.597 29.572 38 24.562 38 19zM1.382 19C1.382 9.285 9.285 1.382 19 1.382S36.618 9.285 36.618 19c0 5.235-2.297 9.941-5.934 13.17a5.178 5.178 0 00-.617-.37l-5.85-2.925a1.531 1.531 0 01-.851-1.377v-2.043c.135-.167.278-.356.426-.564a14.08 14.08 0 001.808-3.54 2.507 2.507 0 001.44-2.272v-2.45c0-.599-.22-1.18-.613-1.636v-3.225c.036-.358.163-2.382-1.3-4.051-1.274-1.454-3.335-2.19-6.127-2.19s-4.853.736-6.126 2.19c-1.464 1.668-1.337 3.692-1.301 4.05v3.225a2.517 2.517 0 00-.613 1.637v2.45c0 .76.341 1.47.926 1.948.56 2.192 1.711 3.852 2.137 4.414v2c0 .564-.308 1.082-.803 1.353l-5.463 2.98a4.993 4.993 0 00-.52.328C3.645 28.874 1.382 24.197 1.382 19zm27.953 14.255c-.242.175-.487.345-.737.508-.115.074-.229.149-.345.221a17.37 17.37 0 01-.997.574c-.074.04-.15.077-.225.115-.778.399-1.583.742-2.41 1.02l-.088.03a17.67 17.67 0 01-1.315.381h-.004c-.448.111-.901.203-1.357.279l-.037.006c-.43.07-.862.12-1.296.159-.077.007-.153.011-.23.017-.43.032-.86.053-1.294.053-.438 0-.875-.021-1.31-.054a17.868 17.868 0 01-1.531-.178l-.057-.01a17.552 17.552 0 01-2.688-.671l-.082-.028a17.867 17.867 0 01-1.286-.492l-.009-.005c-.4-.172-.791-.362-1.178-.563-.05-.027-.102-.052-.151-.078a17.756 17.756 0 01-1.34-.798 17.56 17.56 0 01-.924-.645l-.092-.072.066-.037 5.463-2.98a2.922 2.922 0 001.524-2.566l-.001-2.489-.16-.192c-.014-.017-1.508-1.834-2.073-4.295l-.062-.273-.236-.153a1.145 1.145 0 01-.531-.962v-2.449c0-.321.136-.62.385-.845l.228-.206V11.73l-.007-.09c-.002-.017-.206-1.679.965-3.013.999-1.139 2.711-1.717 5.087-1.717 2.367 0 4.074.574 5.075 1.704 1.17 1.32.978 3.013.977 3.027l-.007 3.939.228.206c.248.223.385.523.385.844v2.45c0 .492-.335.94-.816 1.088l-.343.106-.11.342a12.782 12.782 0 01-1.725 3.476 8.485 8.485 0 01-.509.656l-.171.196v2.555c0 1.114.62 2.116 1.615 2.613l5.85 2.925c.038.018.074.038.11.057-.073.056-.15.108-.224.162z" fill="#000" fill-rule="nonzero"/></symbol><symbol viewBox="0 0 12 12" id="close" xmlns="http://www.w3.org/2000/svg"><path d="M8.314 6.192l3.535 3.536-2.121 2.121-3.536-3.535-3.535 3.535L.536 9.728 4.07 6.192.536 2.657 2.656.536 6.193 4.07 9.728.536l2.121 2.12-3.535 3.536z" fill-rule="evenodd"/></symbol><symbol viewBox="0 0 29 29" id="collection" xmlns="http://www.w3.org/2000/svg"><defs><path id="a" d="M4 0h25v25H4z"/><path id="b" d="M2 2h25v25H2z"/><path id="c" d="M0 4h25v25H0z"/></defs><g fill="none" fill-rule="evenodd"><g><use fill="#000" xmlns:xlink="http://www.w3.org/1999/xlink" xlink:href="#a"/><path stroke="#FFF" d="M4.5.5h24v24h-24z"/></g><g><use fill="#000" xlink:href="#b"/><path stroke="#FFF" d="M2.5 2.5h24v24h-24z"/></g><g><use fill="#000" xlink:href="#c"/><path stroke="#FFF" d="M.5 4.5h24v24H.5z"/></g></g></symbol><symbol viewBox="0 0 32 32" id="facebook" xmlns="http://www.w3.org/2000/svg"><path d="M31.997 15.999C31.997 7.163 24.834 0 15.998 0S-.001 7.163-.001 15.999c0 7.985 5.851 14.604 13.499 15.804v-11.18H9.436v-4.625h4.062v-3.525c0-4.01 2.389-6.225 6.043-6.225 1.75 0 3.581.312 3.581.312v3.937h-2.017c-1.987 0-2.607 1.233-2.607 2.498v3.001h4.437l-.709 4.625h-3.728v11.18c7.649-1.2 13.499-7.819 13.499-15.804z"/></symbol><symbol viewBox="0 0 50 33" id="fs_logo" xmlns="http://www.w3.org/2000/svg"><g fill-rule="evenodd"><path d="M49.207 0H.794A.797.797 0 000 .8v4.4c0 .221.178.4.397.4h6.746V14h24.326c.29 0 .674-.338.674-.707V9.114A.792.792 0 0031.4 8.4h-9.178V5.6H38.89v4c0 .221.177.4.397.4h9.92A.797.797 0 0050 9.2V.8c0-.442-.355-.8-.793-.8M42.597 18.57c-1.636-.353-7.9-.872-10.595-.872l-6.482-.053c-.72 0-3.131-.132-3.454-.637L7.09 17c-.048.228-.1.75-.1 1 0 1.932 2.15 4.435 6.618 5.716 2.67.749 9.363 1.445 11.593 1.445l8.211.061c.462 0 2.218-.026 2.218 1.272s-1.756 1.277-2.218 1.277H23.115c-.315 0-4.826-.086-5.444-1.927-.006-.016-.014-.033-.019-.05a.39.39 0 00-.35-.223H7.034a.394.394 0 00-.394.394v5.905c0 .218.176.394.394.394h9.868a.393.393 0 00.391-.384l.102-1.723c2.08.925 5.429 1.87 8.589 1.87h7.847c4.145 0 16.079-.926 16.079-7.562 0-4.386-5.73-5.553-7.313-5.895z"/></g></symbol><symbol viewBox="0 0 18 18" id="instagram" xmlns="http://www.w3.org/2000/svg"><path d="M12.96 0H4.94A4.946 4.946 0 000 4.94v8.02a4.945 4.945 0 004.94 4.94h8.02a4.946 4.946 0 004.94-4.94V4.94A4.946 4.946 0 0012.96 0zm3.353 12.96a3.356 3.356 0 01-3.352 3.352H4.94a3.355 3.355 0 01-3.352-3.351V4.94A3.355 3.355 0 014.94 1.588h8.02a3.356 3.356 0 013.352 3.352v8.02z"/><path d="M8.95 4.338a4.618 4.618 0 00-4.612 4.613 4.618 4.618 0 004.612 4.612 4.618 4.618 0 004.613-4.612A4.618 4.618 0 008.95 4.338zm0 7.637A3.028 3.028 0 015.926 8.95 3.028 3.028 0 018.95 5.926a3.028 3.028 0 013.025 3.024 3.028 3.028 0 01-3.025 3.025zM13.756 2.991a1.17 1.17 0 00-1.164 1.165c0 .306.125.607.342.824.216.216.516.34.822.34.307 0 .607-.124.824-.34a1.17 1.17 0 000-1.648 1.17 1.17 0 00-.824-.34z"/></symbol><symbol viewBox="0 0 26 21" id="interview" xmlns="http://www.w3.org/2000/svg"><g fill="#FFF" fill-rule="nonzero"><path d="M15.021 14.1c1.54-.673 2.754-1.59 3.644-2.751C19.555 10.188 20 8.924 20 7.556c0-1.368-.445-2.632-1.335-3.793-.89-1.16-2.105-2.078-3.644-2.752C13.483.337 11.81 0 10 0 8.191 0 6.518.337 4.979 1.011c-1.54.674-2.754 1.591-3.644 2.752C.445 4.924 0 6.188 0 7.556c0 1.17.337 2.273 1.009 3.306.672 1.033 1.595 1.904 2.77 2.612a8.243 8.243 0 01-.292.65 3.76 3.76 0 01-.355.568l-.32.427a5.805 5.805 0 01-.369.436c-.17.187-.28.31-.326.368 0-.01-.02.013-.057.067-.038.054-.06.079-.064.074-.005-.005-.024.02-.057.073l-.05.082-.035.073a.317.317 0 00-.029.089.6.6 0 00-.007.095.31.31 0 00.014.096c.02.128.074.231.164.31.09.079.187.118.29.118h.044c.473-.069.88-.148 1.221-.236a11.747 11.747 0 003.95-1.89c.851.158 1.685.237 2.499.237 1.809 0 3.483-.336 5.021-1.01zm-8.242-.206l-.69.543c-.292.222-2.162 1.277-2.517 1.51l2.095-2.298-1.519-.982c-1.002-.655-1.78-1.426-2.333-2.314-.553-.889-.83-1.812-.83-2.77 0-1.193.41-2.309 1.23-3.35.819-1.04 1.923-1.863 3.311-2.471C6.914 1.154 8.407.85 10.004.85c1.598 0 3.09.304 4.479.912 1.388.608 2.492 1.432 3.312 2.472.82 1.04 1.229 2.156 1.229 3.349 0 1.192-.41 2.308-1.229 3.348-.82 1.04-1.924 1.864-3.312 2.472-1.388.608-2.881.912-4.479.912-.782 0-1.58-.082-2.395-.246l-.83-.175z"/><path d="M24.974 15.052c.684-.997 1.026-2.068 1.026-3.213 0-1.174-.361-2.27-1.084-3.292-.723-1.02-1.706-1.87-2.95-2.547a7.285 7.285 0 01-.636 5.81c-.645 1.145-1.57 2.156-2.775 3.034-1.118.802-2.39 1.417-3.816 1.846-1.426.43-2.915.644-4.467.644-.289 0-.713-.018-1.272-.057 1.937 1.26 4.211 1.89 6.823 1.89.829 0 1.677-.077 2.544-.23 1.195.84 2.535 1.45 4.02 1.832.346.086.76.163 1.242.23a.439.439 0 00.318-.1.529.529 0 00.188-.315c-.004-.058 0-.089.015-.094.014-.004.012-.035-.008-.092l-.028-.086-.036-.072a.685.685 0 00-.05-.078.63.63 0 00-.059-.072 1.818 1.818 0 01-.065-.071 10.015 10.015 0 00-.39-.422 5.682 5.682 0 01-.376-.422 43.56 43.56 0 00-.325-.415c-.14-.177-.26-.36-.361-.551-.101-.191-.2-.401-.297-.63 1.195-.687 2.135-1.53 2.819-2.527z"/></g></symbol><symbol viewBox="0 0 24 25" id="linkedin" xmlns="http://www.w3.org/2000/svg"><path d="M.504 8.622v15.504h4.992V8.622H.504zM13.5 15.126c0-2.004 1.277-3 2.777-3 1.5 0 2.72.996 2.72 3.504v8.496H24v-9c0-4.5-2.496-6.996-6-6.996-2.004 0-3.504 1.137-4.5 2.637l-.164-2.145H8.414c0 .527.082 3.504.082 3.504v12H13.5v-9zm-10.523-9C4.828 6.126 6 4.907 6 3.372 5.977 1.825 4.828.63 3.023.63 1.195.63 0 1.825 0 3.372c0 1.535 1.172 2.754 2.941 2.754h.036z" fill-rule="evenodd"/></symbol><symbol viewBox="0 0 9 12" id="lock" xmlns="http://www.w3.org/2000/svg"><path d="M8 5h1v7H0V5h1V3.5a3.5 3.5 0 117 0V5zM4.5 2A1.5 1.5 0 003 3.5v1a1.5 1.5 0 003 0v-1A1.5 1.5 0 004.5 2z" fill-rule="evenodd"/></symbol><symbol viewBox="0 0 270 163" id="logo" xmlns="http://www.w3.org/2000/svg"><defs><path id="a" d="M0 .042h269.671v162.945H0"/></defs><g fill-rule="evenodd"><g><mask id="b" fill="#fff"><use xmlns:xlink="http://www.w3.org/1999/xlink" xlink:href="#a"/></mask><path d="M228.07 89.044c-9.33-2.017-45.05-4.977-60.423-4.977l-29.67-.304c-4.112 0-13.72.133-19.702-2.053H37.757c-.276 1.299-.402 2.658-.402 4.082 0 11.022 12.254 25.303 37.738 32.608 14.28 4.028 50.16 7.76 62.118 7.76l45.034.331c2.185 0 10.877 1.687 10.877 7.599 0 5.128-9.323 6.071-11.034 6.071h-56.069c-1.708 0-26.863-.63-29.964-10.89-.312-1.093-1.084-1.697-2.337-1.697h-55.44c-1.233 0-1.702 1.085-1.702 1.85v31.695c0 1.246.47 1.869 1.556 1.869H90.92c1.102 0 2.032-.304 2.344-1.548l.925-9.003c11.035 5.12 29.68 10.55 47.208 10.55h42.074c22.222 0 86.199-4.968 86.199-40.56 0-24.84-32.619-31.215-41.6-33.383" mask="url(#b)"/></g><path d="M259.985.043H4.97C2.338.043 0 .809 0 3.145v23.767c0 1.858 3.117 1.858 4.66 1.858h33.541v43.99l129.538-.06c1.38 0 3.099-1.674 3.099-2.757V48.966c0-2.32-1.076-3.406-3.1-3.406H118.03V27.844h89.924v22.222c0 1.858 1.082 1.548 3.426 1.548h52.02c2.338 0 2.338-2.338 2.338-3.886V5.472c0-4.344-2.021-5.429-5.753-5.429"/></g></symbol><symbol viewBox="0 0 9 12" id="logout" xmlns="http://www.w3.org/2000/svg"><path d="M8 5h1v7H0V5h1V3.5a3.5 3.5 0 017 0V5zM4.5 2A1.5 1.5 0 003 3.5v1a1.5 1.5 0 003 0v-1A1.5 1.5 0 004.5 2z" fill="#10069F" fill-rule="evenodd"/></symbol><symbol viewBox="0 0 130 33" id="mica_logo" xmlns="http://www.w3.org/2000/svg"><g fill-rule="evenodd"><path d="M47.615 26.76v-5.31h2.366V10.768h-2.366v-5.28h14.14v5.28h-2.367V21.45h2.368v5.31zM89.43 15.41v-.272c.03-1.94-.578-4.734-3.065-4.734-3.218 0-3.4 3.49-3.4 5.888 0 2.336.364 5.918 3.46 5.918 2.852 0 3.339-2.368 3.096-4.705h6.07v1c-.061 6.253-4.889 8.65-10.591 8.65-7.133 0-12.018-3.52-12.018-10.984 0-6.311 3.914-11.108 10.44-11.108 3.032 0 4.643.943 6.402 3.368l.06-2.942h5.766v9.922h-6.22zM40.888 32.123h.943V.144h-.943zM66.886 32.123h.944V.144h-.944zM96.25 31.953l.895.301L107.885.3l-.894-.3zM8.242 21.45h1.93v5.31H0v-5.31h2.366V10.768H0v-5.28h16.022c.576 1.913 1.304 3.764 1.85 5.676.607-1.943 1.365-3.793 2.095-5.675h13.898v5.28h-2.367V21.45h2.367v5.31H21.402v-5.31h1.79v-9.265L17.715 26.76h-3.568L8.242 12.519v8.931zM116.606 26.76v-5.31h2.308c-.243-.818-.61-1.638-.822-2.458h-5.414c-.212.82-.546 1.64-.789 2.458h2.362v5.31h-8.89v-5.31h1.88c1.791-5.31 3.52-10.651 5.342-15.961h9.65a567.088 567.088 0 005.217 15.961H130v5.31h-13.394zm-1.263-16.003c-.332 1.425-1.452 4.38-1.878 5.778h3.806c-.392-1.426-1.594-4.322-1.928-5.778z"/></g></symbol><symbol viewBox="0 0 268 67" id="mica_signature_logo" xmlns="http://www.w3.org/2000/svg"><g fill-rule="evenodd"><path d="M82.156 0L60 66.714l.844.286L83 .286zM123.326 60v-7.24h3.093V40.144c-.948 3.35-2.06 6.701-3.093 10.011-1.072 3.27-1.937 6.577-2.966 9.846h-5.442c-1.03-2.856-1.937-5.709-2.926-8.564-1.236-3.598-2.31-7.322-3.708-10.838V52.76h3.378V60H96v-7.24h3.214V38.199H96V31h21.765c.78 2.607 1.77 5.13 2.511 7.735.826-2.646 1.855-5.17 2.845-7.735H142v7.198h-3.216V52.76H142V60h-18.674zM157 60v-7.24h3.18V38.199H157V31h19v7.198h-3.18V52.76H176V60zM214.494 44.054v-.371c.042-2.638-.79-6.429-4.193-6.429-4.399 0-4.648 4.739-4.648 7.995 0 3.172.5 8.035 4.734 8.035 3.898 0 4.564-3.215 4.232-6.388h8.302V48.256C222.837 56.746 216.236 60 208.436 60 198.682 60 192 55.221 192 45.084 192 36.512 197.354 30 206.279 30c4.147 0 6.347 1.279 8.755 4.575l.083-3.997H223v13.476h-8.506zM249.021 60v-7.24h2.723c-.326-1.118-.651-2.234-.935-3.35h-4.837c-.284 1.116-.61 2.232-.935 3.35h2.926V60H235v-7.24h2.52c2.398-7.24 4.713-14.521 7.153-21.76h12.923c2.234 7.28 4.55 14.563 6.989 21.76H268V60h-18.979zm-.65-19.734c-.449 1.945-1.017 3.89-1.588 5.792h3.173c-.528-1.944-1.14-3.806-1.586-5.792zM149 67h1V24h-1zM184 67h1V24h-1zM223 66.717l.835.283L238 24.283l-.835-.283zM0 54.5C0 57.197 1.455 59 3.857 59c2.416 0 3.856-1.803 3.856-4.5 0-2.736-1.454-4.5-3.856-4.5S0 51.764 0 54.5zm.894 0c0-2.25 1.148-3.797 2.963-3.797 1.815 0 2.962 1.547 2.962 3.797s-1.174 3.797-2.962 3.797C2.069 58.297.894 56.75.894 54.5zm10.209 4.346v-4.142h4.51v-.715h-4.51v-3.12h4.99v-.715H10.25v8.692h.854zm12.317-2.62h3.91l1.014 2.62h.908l-3.43-8.692h-.827l-3.457 8.692h.895l.987-2.62zm3.617-.742H23.7l1.268-3.182c.24-.59.294-.768.4-1.074h.014c.093.306.174.549.387 1.06l1.268 3.196zm10.195 3.362h1.081l-2.882-3.86c.52-.038 1.054-.154 1.508-.435.707-.409 1.134-1.035 1.134-1.968 0-.934-.427-1.573-1.134-1.982-.654-.396-1.415-.447-2.175-.447h-3.577v8.692h.84V55h2.402l2.803 3.847zm-5.204-7.977h2.549c.894 0 1.28.078 1.654.243.588.256.935.742.935 1.458 0 .715-.347 1.201-.935 1.47-.373.154-.76.243-1.654.243h-2.55v-3.414zm7.326 0h2.896v7.977h.84V50.87H46v-.715h-6.646v.715zM7.227 38.096C6.772 37.074 5.77 36 3.854 36 1.46 36 0 37.764 0 40.5 0 43.236 1.392 45 3.854 45c2.022 0 2.945-1.176 3.413-2.2l-.749-.382c-.374.996-1.191 1.866-2.664 1.866-1.832 0-2.97-1.534-2.97-3.784s1.138-3.784 2.97-3.784c1.393 0 2.222.857 2.638 1.84l.735-.46zM8.82 40.5c0 2.697 1.459 4.5 3.868 4.5 2.422 0 3.868-1.803 3.868-4.5 0-2.736-1.46-4.5-3.868-4.5-2.41 0-3.868 1.764-3.868 4.5zm.897 0c0-2.25 1.15-3.797 2.97-3.797 1.82 0 2.972 1.547 2.972 3.797s-1.178 3.797-2.971 3.797c-1.794 0-2.971-1.547-2.971-3.797zm14.815 3.63h-5.019v-7.976h-.842v8.692h5.861v-.715zm7.2 0h-5.018v-7.976h-.843v8.692h5.861v-.715zm7.576 0h-5.394v-3.387h4.644v-.73h-4.644V36.87h5.125v-.715h-5.968v8.692h6.237v-.715zm5.286.154c-1.833 0-2.971-1.534-2.971-3.784s1.138-3.784 2.97-3.784c1.393 0 2.222.857 2.638 1.84l.735-.46C47.511 37.074 46.508 36 44.594 36c-2.396 0-3.855 1.764-3.855 4.5 0 2.736 1.392 4.5 3.855 4.5 1.471 0 2.315-.754 2.65-1.342v1.188h.749V40.45h-4.042v.716h3.306v.076c0 .997-.2 1.663-.562 2.148-.442.601-1.23.895-2.101.895zM57 44.131h-5.393v-3.388h4.644v-.73h-4.644V36.87h5.125v-.715h-5.969v8.692H57v-.715zM1 30.833h.84v-8.68H1v8.68zm4.189-8.68h-.84v8.68h.84v-6.229c0-.625-.027-.97-.053-1.276h.013c.04.115.413.714.774 1.2l4.603 6.306h.84v-8.68h-.84v6.216c0 .626.014.958.04 1.264h-.013c-.04-.115-.388-.69-.747-1.175l-4.617-6.306zm14.463 1.162C19.105 22.626 18.104 22 16.61 22c-1.801 0-3.056.983-3.056 2.336 0 1.545 1.16 1.979 2.509 2.26l1.134.242c1.294.269 1.935.677 1.935 1.621 0 1.086-.88 1.813-2.442 1.813-1.56 0-2.495-.842-2.855-1.736l-.748.472c.467.97 1.615 1.979 3.59 1.979 2.08 0 3.349-1.098 3.349-2.578 0-1.43-.961-1.992-2.549-2.323l-1.214-.256c-1.201-.256-1.828-.6-1.828-1.558 0-.931.907-1.544 2.135-1.544 1.04 0 1.842.421 2.415 1.136l.667-.55zm1.054-.447H23.6v7.966h.84v-7.966h2.91v-.715h-6.645v.715zm8.192 7.965h.84v-8.68h-.84v8.68zm2.388-7.965h2.896v7.966h.84v-7.966h2.909v-.715h-6.645v.715zM42.801 31c1.721 0 2.935-.74 3.296-2.209.066-.319.106-.6.106-1.532v-5.106h-.84v5.17c0 1.021-.08 1.405-.254 1.775-.374.816-1.2 1.187-2.308 1.187-1.12 0-1.948-.37-2.322-1.187-.174-.37-.253-.754-.253-1.774v-5.17h-.84v5.105c0 .933.04 1.213.12 1.532C39.865 30.26 41.092 31 42.8 31zm4.79-8.132h2.895v7.966h.84v-7.966h2.91v-.715H47.59v.715zM62 30.119h-5.376v-3.383h4.63v-.728h-4.63v-3.14h5.11v-.715h-5.951v8.68H62v-.714zM7.73 10.07c.348-.86.575-1.614.67-1.972h.012c-.04.384-.08 1.681-.08 2.462V16h.843V7h-1.03l-2.53 6.366c-.253.635-.374 1.006-.44 1.364H5.16c-.067-.345-.254-.768-.509-1.377L1.989 7H1v9h.842v-5.678c0-.781-.04-1.641-.093-2.052h.013c.12.45.295.993.656 1.853L4.88 16h.508l2.342-5.93zm4.804 3.217h3.92L17.472 16h.91l-3.439-9h-.83l-3.465 9h.896l.99-2.713zm3.626-.768h-3.345l1.271-3.295c.24-.61.294-.795.401-1.113h.014c.093.318.173.57.388 1.1l1.27 3.308zM25.915 16h1.084l-2.891-3.997c.522-.04 1.057-.16 1.512-.45.71-.424 1.138-1.073 1.138-2.038 0-.967-.429-1.629-1.138-2.052-.655-.41-1.418-.463-2.18-.463h-3.587v9h.843v-3.984h2.408L25.914 16zm-5.22-8.259h2.557c.896 0 1.284.08 1.659.251.588.265.936.768.936 1.51 0 .74-.348 1.244-.936 1.521-.375.16-.763.252-1.659.252h-2.556V7.74zm11.026 4.566L35.174 7h-.99l-2.837 4.46L28.604 7h-1.017l3.291 5.307V16h.843v-3.693zM42.28 15.26H37.26V7h-.843v9h5.86v-.741zm2.662-1.972h3.921L49.88 16h.91L47.35 7h-.83l-3.466 9h.897l.99-2.713zm3.627-.768h-3.345l1.27-3.295c.241-.61.294-.795.402-1.113h.013c.094.318.174.57.388 1.1l1.272 3.308zM53.103 7h-.842v9h.842V9.54c0-.647-.026-1.005-.053-1.323h.013c.04.12.415.742.777 1.245L58.456 16h.843V7h-.843v6.446c0 .648.014.993.04 1.31h-.013c-.04-.12-.388-.715-.75-1.218L53.103 7zm10.852 9c1.78 0 2.77 0 3.72-.926.844-.808 1.325-2.092 1.325-3.6 0-1.642-.602-3.296-1.967-4.024-.75-.41-1.579-.45-2.797-.45H61.88v9h2.074zm-1.23-8.259h1.15c1.552 0 2.341.026 3.064.649.763.648 1.164 1.853 1.164 3.123 0 1.417-.509 2.568-1.164 3.124-.696.622-1.539.622-2.756.622h-1.459V7.741z"/></g></symbol><symbol viewBox="0 0 9 11" id="nav" xmlns="http://www.w3.org/2000/svg"><path d="M0 0h9v3H0V0zm0 4h9v3H0V4zm0 4h9v3H0V8z" fill-rule="evenodd"/></symbol><symbol viewBox="0 0 19 29" id="pin" xmlns="http://www.w3.org/2000/svg"><path d="M18.551 7.012c-.098-.376-.297-.776-.445-1.127C16.341 1.553 12.486 0 9.372 0 5.204 0 .612 2.855 0 8.74v1.202c0 .05.017.5.041.726.344 2.805 2.51 5.785 4.128 8.59 1.74 3.004 3.547 5.96 5.336 8.914 1.104-1.928 2.203-3.881 3.282-5.76.293-.55.635-1.101.929-1.627.196-.35.57-.7.742-1.027C16.198 16.503 19 13.222 19 9.992V8.665c0-.35-.425-1.578-.449-1.653zm-9.19 6.091c-1.278 0-2.679-.625-3.37-2.352-.103-.275-.094-.826-.094-.876v-.776c0-2.201 1.912-3.202 3.575-3.202 2.048 0 3.631 1.601 3.631 3.603 0 2.002-1.694 3.603-3.741 3.603z"/></symbol><symbol viewBox="0 0 19 24" id="play" xmlns="http://www.w3.org/2000/svg"><path d="M19 12L0 24V0z" fill-rule="evenodd"/></symbol><symbol viewBox="0 0 13 13" id="plus" xmlns="http://www.w3.org/2000/svg"><path d="M7.852 13H5.148a.27.27 0 01-.273-.273V8.125H.273A.27.27 0 010 7.852V5.148a.27.27 0 01.273-.273h4.602V.273A.27.27 0 015.148 0h2.704a.27.27 0 01.273.273v4.602h4.602a.27.27 0 01.273.273v2.704a.27.27 0 01-.273.273H8.125v4.602a.27.27 0 01-.273.273z"/></symbol><symbol viewBox="0 0 19 21" id="profile" xmlns="http://www.w3.org/2000/svg"><g fill="#FFF" fill-rule="nonzero"><path d="M9.263 11.323h.145c1.332-.022 2.409-.47 3.204-1.327 1.75-1.89 1.459-5.127 1.427-5.436-.114-2.319-1.259-3.429-2.204-3.946C11.13.226 10.308.017 9.39 0h-.077c-.505 0-1.496.078-2.445.596-.955.518-2.118 1.628-2.232 3.964-.032.31-.322 3.547 1.427 5.436.791.857 1.868 1.305 3.2 1.327zM5.85 4.669c0-.013.004-.026.004-.035.15-3.12 2.463-3.455 3.454-3.455H9.363c1.227.026 3.313.505 3.454 3.455 0 .013 0 .027.004.035.005.03.323 2.99-1.122 4.548-.573.618-1.337.922-2.34.93h-.046c-1-.008-1.768-.312-2.336-.93-1.44-1.55-1.132-4.522-1.127-4.548z"/><path d="M18.675 16.693v-.014c0-.034-.005-.07-.005-.108-.027-.862-.086-2.877-2.059-3.52l-.045-.014c-2.05-.5-3.754-1.632-3.772-1.645a.63.63 0 00-.855.144.571.571 0 00.15.818c.078.052 1.886 1.258 4.15 1.815 1.058.36 1.177 1.444 1.208 2.437 0 .039 0 .073.005.108.005.392-.023.997-.095 1.345-.737.4-3.622 1.784-8.013 1.784-4.371 0-7.275-1.388-8.016-1.788-.073-.349-.105-.953-.096-1.345 0-.035.005-.07.005-.109.032-.992.15-2.076 1.209-2.437 2.263-.557 4.072-1.766 4.149-1.814a.571.571 0 00.15-.818.63.63 0 00-.854-.144c-.019.013-1.714 1.144-3.772 1.645-.019.004-.032.009-.046.013-1.972.648-2.031 2.663-2.059 3.52 0 .04 0 .074-.004.11v.012c-.005.226-.01 1.388.232 1.971a.565.565 0 00.236.275c.136.087 3.404 2.08 8.871 2.08 5.467 0 8.735-1.998 8.871-2.08a.589.589 0 00.236-.275c.228-.578.223-1.74.219-1.966z"/></g></symbol><symbol viewBox="0 0 11 11" id="search" xmlns="http://www.w3.org/2000/svg"><path d="M8.106 7.192l2.283 2.283-1.414 1.414-2.397-2.397a4.5 4.5 0 111.528-1.3zM4.5 7a2.5 2.5 0 100-5 2.5 2.5 0 000 5z" fill-rule="evenodd"/></symbol><symbol viewBox="0 0 35 100" id="slash" xmlns="http://www.w3.org/2000/svg"><path d="M0 93.27L8.075 100 35 6.725 26.925 0z"/></symbol><symbol viewBox="0 0 20 20" id="story" xmlns="http://www.w3.org/2000/svg"><g fill="none" fill-rule="evenodd"><path fill="#FFF" fill-rule="nonzero" d="M4 5h5v1H4zM4 8h7v1H4zM4 11h13v1H4zM4 14h11v1H4z"/><path stroke="#FFF" d="M.5.5h19v19H.5z"/><path fill="#FFF" d="M13 5h4v4h-4z"/></g></symbol><symbol viewBox="0 0 13 15" id="swipe" xmlns="http://www.w3.org/2000/svg"><path d="M11.812 5.427c.588 1.287.553 2.718-.256 5.146a.145.145 0 00-.006.077l.46 2.269c.017.08-.034.147-.113.168L6.41 14.558c-.056.015-.112.008-.15-.034L.349 8.1c-.715-.685-.221-1.64.492-1.83.316-.085.676-.02.992.283l.707.634c.146.13.324.16.48.118a.521.521 0 00.377-.643l-1.423-5.31C1.789.662 2.21.178 2.728.04c.518-.139 1.125.068 1.31.758l.809 3.02a.154.154 0 00.23.09c.133-.086.332-.195.572-.259.41-.11.938-.089 1.437.407a.163.163 0 00.157.043.156.156 0 00.05-.024c.124-.087.345-.222.62-.296.384-.103.872-.088 1.347.337a.48.48 0 00.418.108c.472-.099 1.522-.14 2.134 1.202z"/></symbol><symbol viewBox="0 0 7 5" id="triangle" xmlns="http://www.w3.org/2000/svg"><path d="M3.5 4.667L7 0H0z" fill-rule="evenodd"/></symbol><symbol viewBox="0 0 11 8" id="triangle_up" xmlns="http://www.w3.org/2000/svg"><path d="M5.22 0l5 8h-10z" fill="#10069F" fill-rule="evenodd"/></symbol><symbol viewBox="0 0 30 25" id="twitter" xmlns="http://www.w3.org/2000/svg"><path d="M30 3.376a12.465 12.465 0 01-3.062 3.193v.806c0 8.13-6.181 17.505-17.49 17.505-3.471 0-6.738-.762-9.448-2.505.483.073.967.103 1.465.103 2.87 0 5.552-1.246 7.632-2.916-2.666-.029-4.966-1.845-5.728-4.277.381.073.762.117 1.143.117.556 0 1.113-.073 1.64-.22a6.149 6.149 0 01-4.936-6.035v-.073a6.169 6.169 0 002.783.762c-1.67-1.113-2.754-2.988-2.754-5.098 0-1.142.322-2.08.835-2.988 3.062 3.72 7.573 6.035 12.671 6.313-.103-.439-.132-.937-.132-1.42A6.127 6.127 0 0120.757.505c1.772 0 3.369.762 4.526 1.933A12.355 12.355 0 0029.165.944a6.102 6.102 0 01-2.71 3.413A12.004 12.004 0 0030 3.376z" fill-rule="evenodd"/></symbol><symbol viewBox="0 0 29 18" id="video" xmlns="http://www.w3.org/2000/svg"><path d="M22.511 0H1.023C.474 0 0 .43 0 .979V17.02c0 .525.45.979 1.023.979h21.488c.55 0 1.023-.43 1.023-.979V12.39l3.719 3.557c.2.19.45.286.724.286.125 0 .274-.023.4-.071a.97.97 0 00.623-.907V2.72c0-.381-.25-.74-.624-.907-.374-.143-.824-.071-1.098.215l-3.719 3.557V.98A1.029 1.029 0 0022.511 0zM22 7.81V17H1V1h21v6.81zM28 3v12l-5-4.997v-1.97L28 3z" fill="#FFF" fill-rule="nonzero"/></symbol><symbol viewBox="0 0 32 24" id="youtube" xmlns="http://www.w3.org/2000/svg"><path d="M16 .672c16 0 16 0 16 11.328s0 11.328-16 11.328S0 23.328 0 12 0 .672 16 .672zM12 18l10-6-10-6v12z" fill-rule="evenodd"/></symbol></svg>