<svg width="22" height="49" viewBox="0 0 22 49" fill="none" xmlns="http://www.w3.org/2000/svg">
<path d="M16.3133 48.9996H21.7512L21.7512 43.555H16.3133V48.9996Z" fill="black"/>
<path d="M10.8756 38.1108H16.3135V32.6662H10.8756V38.1108Z" fill="black"/>
<path d="M10.8756 43.5556L16.3133 43.555L16.3135 38.1108H10.8756V43.5556Z" fill="black"/>
<path d="M10.8756 16.3332L16.3135 16.3332V10.8886L10.8756 10.8886L10.8756 16.3332Z" fill="black"/>
<path d="M16.3133 5.44366L21.7513 5.44366V-0.000976087L16.3133 -0.000976562L16.3133 5.44366Z" fill="black"/>
<path d="M10.8756 10.8886L16.3135 10.8886L16.3133 5.44366L10.8756 5.44306V10.8886Z" fill="black"/>
<path d="M5.43815 32.6668L10.8756 32.6662L10.8761 27.2221H5.43815L5.43815 32.6668Z" fill="black"/>
<path d="M5.43815 21.778H10.8761L10.8756 16.3332L5.43815 16.3333L5.43815 21.778Z" fill="black"/>
<path d="M0 27.2213L5.43815 27.2221L5.43795 21.7766H4.75985e-07L0 27.2213Z" fill="black"/>
<path d="M10.8756 27.2213L16.3135 27.2213V21.7766H10.8756L10.8756 27.2213Z" fill="black"/>
<path d="M16.3135 27.2213H21.7513V21.7766H16.3135V27.2213Z" fill="black"/>
</svg>
