<svg width="166" height="23" viewBox="0 0 166 23" fill="none" xmlns="http://www.w3.org/2000/svg">
<path d="M7.53067 1.3375H0.719172V22H4.33867V14.191H7.58767C12.4612 14.191 16.3087 13.051 16.3087 7.8355C16.3087 2.0785 12.0622 1.3375 7.53067 1.3375ZM4.33867 4.2445H7.53067C10.0672 4.2445 12.5467 4.501 12.5467 7.864C12.5467 10.828 10.4377 11.227 7.70167 11.227H4.33867V4.2445ZM22.3182 22V1.3375H18.6987V22H22.3182ZM30.0161 5.5095V1.3795H25.8861V5.5095H30.0161ZM42.4061 9.6395V5.5095H38.2761V9.6395H42.4061ZM46.5361 5.5095V1.3795H42.4061V5.5095H46.5361ZM34.1461 9.6395V5.5095H30.0161V9.6395H34.1461ZM30.0161 22.0295V17.87H25.8861V22.0295H30.0161ZM42.4061 9.6395H30.0161V17.87H34.1461V13.7695H38.2761V17.87H42.4061V9.6395ZM46.5361 22.0295V17.87H42.4061V22.0295H46.5361ZM50.1147 1.3375V22H64.7352V18.9505H53.7342V12.88H64.1367V9.8875H53.7342V4.3585H64.7352V1.3375H50.1147ZM71.2684 18.9505V1.3375H67.6489V22H81.6709V18.9505H71.2684ZM89.6564 1.3375L81.9614 22H85.6664L87.2624 17.4115H95.6414L97.2659 22H101.227L93.4754 1.3375H89.6564ZM88.3169 14.3905L91.4234 5.527L94.5584 14.3905H88.3169ZM105.858 4.3585V22H109.477V4.3585H115.975V1.3375H99.3598V4.3585H105.858ZM121.811 22V1.3375H118.192V22H121.811ZM135.019 22.3705C141.09 22.3705 144.88 18.01 144.88 11.6545C144.88 5.299 141.09 0.966999 135.019 0.966999C128.949 0.966999 125.158 5.299 125.158 11.6545C125.158 18.01 128.949 22.3705 135.019 22.3705ZM135.019 19.4065C131.599 19.4065 128.892 16.6705 128.892 11.6545C128.892 6.6385 131.599 3.931 135.019 3.931C138.439 3.931 141.147 6.6385 141.147 11.6545C141.147 16.6705 138.439 19.4065 135.019 19.4065ZM160.478 22H165.323V1.3375H161.817V17.839L153.068 1.3375H148.223V22H151.728V5.4985L160.478 22Z" fill="#2C3238"/>
</svg>
