<svg width="38" height="38" viewBox="0 0 38 38" fill="none" xmlns="http://www.w3.org/2000/svg">
<path d="M30.3078 33.6671L33.6669 37.0262L37.026 33.6671L33.6669 30.3081L30.3078 33.6671Z" fill="black"/>
<path d="M26.9486 30.3082L30.3078 33.6671L33.6669 30.3081L30.3077 26.9491L26.9486 30.3082Z" fill="black"/>
<path d="M23.5899 26.9494L26.9486 30.3082L30.3077 26.9491L26.949 23.5904L23.5899 26.9494Z" fill="black"/>
<path d="M20.2309 23.5902L23.5899 26.9494L26.949 23.5904L23.59 20.2312L20.2309 23.5902Z" fill="black"/>
<path d="M16.872 20.2313L20.2309 23.5902L23.59 20.2312L20.231 16.8722L16.872 20.2313Z" fill="black"/>
<path d="M13.5132 16.8726L16.872 20.2313L20.231 16.8722L16.8723 13.5135L13.5132 16.8726Z" fill="black"/>
<path d="M10.154 13.5134L13.5132 16.8726L16.8723 13.5135L13.5131 10.1543L10.154 13.5134Z" fill="black"/>
<path d="M6.79508 10.1544L10.154 13.5134L13.5131 10.1543L10.1541 6.79532L6.79508 10.1544Z" fill="black"/>
<path d="M10.1541 6.79532L13.5131 10.1543L16.8722 6.79543L13.5131 3.43636L10.1541 6.79532Z" fill="black"/>
<path d="M3.43587 13.5134L6.79494 16.8724L10.154 13.5134L6.79508 10.1544L3.43587 13.5134Z" fill="black"/>
<path d="M3.43636 6.79567L6.79508 10.1544L10.1541 6.79532L6.79543 3.4366L3.43636 6.79567Z" fill="black"/>
<path d="M0.0771501 3.43671L3.43636 6.79567L6.79543 3.4366L3.43622 0.0776381L0.0771501 3.43671Z" fill="black"/>
<path d="M0.0771484 16.8721L3.43622 20.2311L6.79494 16.8724L3.43587 13.5134L0.0771484 16.8721Z" fill="black"/>
<path d="M0.0771494 23.5902L3.43622 26.9493L6.79529 23.5902L3.43622 20.2311L0.0771494 23.5902Z" fill="black"/>
<path d="M3.43622 26.9493L6.79543 30.3085L10.1545 26.9494L6.79529 23.5902L3.43622 26.9493Z" fill="black"/>
<path d="M13.5131 3.43636L16.8722 6.79543L20.2309 3.43671L16.8718 0.0776367L13.5131 3.43636Z" fill="black"/>
<path d="M3.43622 20.2311L6.79529 23.5902L10.1545 20.2313L6.79494 16.8724L3.43622 20.2311Z" fill="black"/>
<path d="M16.8722 6.79543L20.231 10.1547L23.5901 6.79567L20.2309 3.43671L16.8722 6.79543Z" fill="black"/>
<path d="M20.2309 3.43671L23.5901 6.79567L26.9491 3.43671L23.59 0.0776367L20.2309 3.43671Z" fill="black"/>
<path d="M23.5901 6.79567L26.949 10.1547L30.308 6.79567L26.9491 3.43671L23.5901 6.79567Z" fill="black"/>
<path d="M0.0771494 10.1546L3.43587 13.5134L6.79508 10.1544L3.43636 6.79567L0.0771494 10.1546Z" fill="black"/>
<path d="M6.79543 3.4366L10.1541 6.79532L13.5131 3.43636L10.1544 0.0776367L6.79543 3.4366Z" fill="black"/>
</svg>
