<svg width="22" height="49" viewBox="0 0 22 49" fill="none" xmlns="http://www.w3.org/2000/svg">
<path d="M5.43799 0L4.45664e-05 9.508e-07L4.55184e-05 5.44464L5.43799 5.44464L5.43799 0Z" fill="black"/>
<path d="M10.8757 10.8888L5.43777 10.8888L5.43778 16.3334L10.8757 16.3334L10.8757 10.8888Z" fill="black"/>
<path d="M10.8757 5.44403L5.43799 5.44464L5.43777 10.8888L10.8757 10.8888L10.8757 5.44403Z" fill="black"/>
<path d="M10.8757 32.6664H5.43778L5.43778 38.1111L10.8757 38.1111L10.8757 32.6664Z" fill="black"/>
<path d="M5.43795 43.556H5.71158e-06L6.66355e-06 49.0006H5.43796L5.43795 43.556Z" fill="black"/>
<path d="M10.8757 38.1111L5.43778 38.1111L5.43795 43.556L10.8757 43.5566L10.8757 38.1111Z" fill="black"/>
<path d="M16.3131 16.3328L10.8757 16.3334L10.8752 21.7775H16.3131L16.3131 16.3328Z" fill="black"/>
<path d="M16.3131 27.2216L10.8752 27.2216L10.8757 32.6664L16.3131 32.6663V27.2216Z" fill="black"/>
<path d="M21.7513 21.7783L16.3131 21.7775L16.3133 27.223H21.7513V21.7783Z" fill="black"/>
<path d="M10.8757 21.7784H5.43778L5.43778 27.223H10.8757L10.8757 21.7784Z" fill="black"/>
<path d="M5.43778 21.7784H0L9.5197e-07 27.223L5.43778 27.223L5.43778 21.7784Z" fill="black"/>
</svg>
