<svg width="65" height="50" viewBox="0 0 65 50" fill="none" xmlns="http://www.w3.org/2000/svg">
<path d="M21.6667 0H16.2499V5.55569H21.6667V0Z" fill="#11EDD3"/>
<path d="M32.4998 0H27.083V5.55569H32.4998V0Z" fill="#11EDD3"/>
<path d="M21.6667 44.4443H16.2499V50H21.6667V44.4443Z" fill="#11EDD3"/>
<path d="M37.9166 44.4443H32.4997V50H37.9166V44.4443Z" fill="#11EDD3"/>
<path d="M48.7501 0H43.3332V5.55569H48.7501V0Z" fill="#11EDD3"/>
<path d="M48.7501 44.4443H43.3332V50H48.7501V44.4443Z" fill="#11EDD3"/>
<path d="M5.41685 22.2221H0V27.7779H5.41685V22.2221Z" fill="#11EDD3"/>
<path d="M27.0835 16.6663H21.6666V22.2221H27.0835V16.6663Z" fill="#11EDD3"/>
<path d="M43.3339 16.6663H37.917V22.2221H43.3339V16.6663Z" fill="#11EDD3"/>
<path d="M48.7501 27.7772H43.3332V33.3329H48.7501V27.7772Z" fill="#11EDD3"/>
<path d="M21.6667 27.7772H16.2499V33.3329H21.6667V27.7772Z" fill="#11EDD3"/>
<path d="M10.8337 11.1109H5.4169V16.6666H10.8337V11.1109Z" fill="#11EDD3"/>
<path d="M10.8337 33.333H5.4169V38.8887H10.8337V33.333Z" fill="#11EDD3"/>
<path d="M16.2499 5.55569L10.8331 5.55573V11.1114H16.25L16.2499 5.55569Z" fill="#11EDD3"/>
<path d="M16.25 38.889H10.8331V44.4447H16.25V38.889Z" fill="#11EDD3"/>
<path d="M5.41713 16.6664H0.000274774L0 22.2221H5.41685L5.41713 16.6664Z" fill="#11EDD3"/>
<path d="M5.41685 27.7771H0V33.3328L5.4169 33.333L5.41685 27.7771Z" fill="#11EDD3"/>
<path d="M54.1663 38.8886H59.5831V33.3328H54.1663V38.8886Z" fill="#11EDD3"/>
<path d="M54.1663 16.6665H59.5831V11.1108H54.1663V16.6665Z" fill="#11EDD3"/>
<path d="M48.7501 44.4443H54.1669V38.8886H48.75L48.7501 44.4443Z" fill="#11EDD3"/>
<path d="M48.75 11.1108H54.1669V5.55505H48.75V11.1108Z" fill="#11EDD3"/>
<path d="M59.5832 33.3338H65V27.7781H59.5832V33.3338Z" fill="#11EDD3"/>
<path d="M59.5832 22.2225H65V16.6668H59.5832V22.2225Z" fill="#11EDD3"/>
<path d="M43.3339 33.333H37.917V38.8887H43.3339V33.333Z" fill="#11EDD3"/>
<path d="M37.9166 33.333H32.4997V38.8887H37.9166V33.333Z" fill="#11EDD3"/>
<path d="M27.0835 33.333L21.6667 33.3329L21.6666 38.8887H27.0835V33.333Z" fill="#11EDD3"/>
<path d="M65 22.2221H59.5831V27.7778H65V22.2221Z" fill="#11EDD3"/>
</svg>
