<svg id="Layer_1" data-name="Layer 1" xmlns="http://www.w3.org/2000/svg" viewBox="0 0 86.41 64.81"><defs><style>.cls-1{fill:#231f20;}</style></defs><path class="cls-1" d="M10.8,45.22H3.6V23.62h7.2Zm0-21.6v-7.2H18v7.2Zm0,28.8v-7.2H18v7.2Zm7.2-36V9.22h7.2v7.2Zm0,43.2v-7.2h7.2v7.2Zm7.2-50.4V2h7.2v7.2Zm0,36V38h7.2v7.2Zm0,21.6v-7.2h7.2v7.2Zm7.2-36v-7.2h7.2v7.2Zm0,21.6v-7.2h7.2v7.2Zm7.2-43.2V2h7.2v7.2Zm21.61,43.2H46.8v-7.2H61.21ZM46.8,66.82v-7.2H54v7.2Zm7.2-36v-7.2h7.2v7.2Zm7.21-21.6V2h7.2v7.2Zm0,36V38h7.2v7.2Zm0,21.6v-7.2h7.2v7.2Zm7.2-50.4V9.22h7.2v7.2Zm0,43.2v-7.2h7.2v7.2Zm7.2-36v-7.2h7.2v7.2Zm0,28.8v-7.2h7.2v7.2ZM90,23.62v21.6h-7.2V23.62Z" transform="translate(-3.6 -2.02)"/></svg>