<svg width="232" height="173" viewBox="0 0 232 173" fill="none" xmlns="http://www.w3.org/2000/svg">
<path d="M77.0047 0H57.7529V19.1844H77.0047V0Z" fill="#11EDD3"/>
<path d="M115.506 0H96.2544V19.1844H115.506V0Z" fill="#11EDD3"/>
<path d="M77.0047 153.471H57.7529V172.656H77.0047V153.471Z" fill="#11EDD3"/>
<path d="M134.758 153.471H115.506V172.656H134.758V153.471Z" fill="#11EDD3"/>
<path d="M173.261 0H154.009V19.1844H173.261V0Z" fill="#11EDD3"/>
<path d="M173.261 153.471H154.009V172.656H173.261V153.471Z" fill="#11EDD3"/>
<path d="M19.2518 76.7356H0V95.9201H19.2518V76.7356Z" fill="#11EDD3"/>
<path d="M96.2562 57.5508H77.0044V76.7353H96.2562V57.5508Z" fill="#11EDD3"/>
<path d="M154.011 57.5508H134.759V76.7353H154.011V57.5508Z" fill="#11EDD3"/>
<path d="M173.261 95.918H154.009V115.102H173.261V95.918Z" fill="#11EDD3"/>
<path d="M77.0047 95.918H57.7529V115.102H77.0047V95.918Z" fill="#11EDD3"/>
<path d="M38.5037 38.3672H19.252V57.5517H38.5037V38.3672Z" fill="#11EDD3"/>
<path d="M38.5037 115.103H19.252V134.287H38.5037V115.103Z" fill="#11EDD3"/>
<path d="M57.7529 19.1844L38.5015 19.1846V38.369H57.7533L57.7529 19.1844Z" fill="#11EDD3"/>
<path d="M57.7533 134.288H38.5015V153.473H57.7533V134.288Z" fill="#11EDD3"/>
<path d="M19.2528 57.551H0.000976562L0 76.7356H19.2518L19.2528 57.551Z" fill="#11EDD3"/>
<path d="M19.2518 95.9175H0V115.102L19.252 115.103L19.2518 95.9175Z" fill="#11EDD3"/>
<path d="M192.51 134.287H211.762V115.102H192.51V134.287Z" fill="#11EDD3"/>
<path d="M192.51 57.5513H211.762V38.3668H192.51V57.5513Z" fill="#11EDD3"/>
<path d="M173.261 153.471H192.512V134.287H173.26L173.261 153.471Z" fill="#11EDD3"/>
<path d="M173.26 38.3667H192.512V19.1822H173.26V38.3667Z" fill="#11EDD3"/>
<path d="M211.762 115.105H231.014V95.9209H211.762V115.105Z" fill="#11EDD3"/>
<path d="M211.762 76.7368H231.014V57.5523H211.762V76.7368Z" fill="#11EDD3"/>
<path d="M154.011 115.103H134.759V134.287H154.011V115.103Z" fill="#11EDD3"/>
<path d="M134.758 115.103H115.506V134.287H134.758V115.103Z" fill="#11EDD3"/>
<path d="M96.2562 115.103L77.0047 115.102L77.0044 134.287H96.2562V115.103Z" fill="#11EDD3"/>
<path d="M231.014 76.7354H211.762V95.9198H231.014V76.7354Z" fill="#11EDD3"/>
</svg>
