<svg width="577" height="574" viewBox="0 0 577 574" fill="none" xmlns="http://www.w3.org/2000/svg">
<path d="M38.5397 1.68462e-06H0V38.5397H38.5397V1.68462e-06Z" fill="#11EDD3"/>
<path d="M38.5397 38H0V76.5397H38.5397V38Z" fill="#11EDD3"/>
<path d="M76.5397 1.68462e-06H38V38.5397H76.5397V1.68462e-06Z" fill="#11EDD3"/>
<path d="M538 573.54H576.54V535H538V573.54Z" fill="#11EDD3"/>
<path d="M538 535.54H576.54V497H538V535.54Z" fill="#11EDD3"/>
<path d="M500 573.54H538.54V535H500V573.54Z" fill="#11EDD3"/>
<path d="M576.54 38.5397V1.68462e-06L538 0V38.5397H576.54Z" fill="#11EDD3"/>
<path d="M538.54 38.5397V1.68462e-06L500 0V38.5397H538.54Z" fill="#11EDD3"/>
<path d="M576.54 76.5397V38H538V76.5397H576.54Z" fill="#11EDD3"/>
<path d="M5.05387e-06 535L0 573.54H38.5397L38.5397 535H5.05387e-06Z" fill="#11EDD3"/>
<path d="M38 535L38 573.54H76.5397L76.5397 535H38Z" fill="#11EDD3"/>
<path d="M5.05387e-06 497L0 535.54H38.5397L38.5397 497L5.05387e-06 497Z" fill="#11EDD3"/>
</svg>
